
<svg width="80px" height="80px" viewBox="0 0 156 156" version="1.1" xmlns="http://www.w3.org/2000/svg" xmlns:xlink="http://www.w3.org/1999/xlink">
    <defs>
        <path d="M155.389408,77.0426765 C155.050472,35.8119998 122.594168,2.23586824 81.8109897,0.107165109 L73.5786688,0.107165109 C34.2540475,2.15985956 2.67003437,33.4543171 0.160747664,72.6564196 L0.160747664,72.6564196 L0.160747664,82.7332811 C2.75700736,123.296325 36.478408,155.389408 77.694704,155.389408 C120.388727,155.389408 155.039143,120.958106 155.389408,78.3467719 L155.389408,77.0426765 L155.389408,77.0426765 Z" id="path-1"></path>
    </defs>
    <circle id="Oval" stroke="none" fill="#FFFFFF" fill-rule="evenodd" cx="77.5" cy="77.5" r="75.5"></circle>
    <g id="Group-12" stroke="none" stroke-width="1" fill="none" fill-rule="evenodd">
        <mask id="mask-2" fill="white">
            <use xlink:href="#path-1"></use>
        </mask>
        <g id="Clip-11"></g>
        <path d="M78.2519626,83.4762617 L79.4200623,83.714704 L79.0717757,84.8586916 L79.224486,84.9417445 L80.9578816,82.9002492 L80.8721495,82.7555763 L78.2519626,83.2994393 L78.2519626,83.4762617 Z M78.4448598,80.2505919 L78.594891,80.3416822 L80.1085981,78.7020561 L80.0282243,78.554704 L77.8259813,78.9163863 L77.8206231,79.0932087 L78.7690343,79.328972 L78.4448598,80.2505919 Z M73.434891,93.0782555 L71.6505919,93.0755763 L71.610405,93.2497196 L72.3123364,93.5497819 L71.9426168,94.2168847 L72.0765732,94.3320872 L73.4884735,93.2416822 L73.434891,93.0782555 Z M77.2258567,90.0963863 L74.9941433,90.1660436 L74.9646729,90.342866 L75.8755763,90.69919 L75.4308411,91.5725857 L75.5674766,91.6824299 L77.2821184,90.2544548 L77.2258567,90.0963863 Z M79.0289097,88.1325857 L80.2639875,88.306729 L79.9692835,89.5176947 L80.1300312,89.5953894 L81.8071651,87.3663551 L81.7107165,87.2270405 L79.0181931,87.9557632 L79.0289097,88.1325857 Z M73.1107165,97.011215 L73.0732087,97.1826791 L73.7724611,97.4907788 L73.4054206,98.1552025 L73.5393769,98.270405 L74.9485981,97.1773209 L74.8950156,97.0138941 L73.1107165,97.011215 Z M84.2398131,97.1666044 L85.4427414,95.8431153 L85.3596885,95.6957632 L83.6021807,95.9985047 L83.5968224,96.172648 L84.3335826,96.3548287 L84.0897819,97.0728349 L84.2398131,97.1666044 Z M85.1212461,85.8874766 L87.1680997,83.063676 L87.0716511,82.9216822 L83.7227414,83.8942056 L83.7361371,84.0737072 L85.308785,84.2666044 L84.9631776,85.8124611 L85.1212461,85.8874766 Z M78.6618692,93.8900312 L76.4328349,93.8846729 L76.3953271,94.0561371 L77.2928349,94.4446106 L76.8186293,95.3019315 L76.9525857,95.417134 L78.7181308,94.0507788 L78.6618692,93.8900312 Z M82.7662928,78.6056075 L84.2960748,79.015514 L83.7388162,80.4997508 L83.8888474,80.5935202 L86.3027414,78.0804984 L86.2250467,77.925109 L82.7743302,78.4314642 L82.7662928,78.6056075 Z M81.7294704,94.034704 L83.5352025,91.9074766 L83.4494704,91.7601246 L80.7194393,92.3307788 L80.7194393,92.5076012 L81.9384424,92.7567601 L81.5767601,93.948972 L81.7294704,94.034704 Z M87.3234891,72.534704 L87.4574455,72.6499065 L88.8639875,71.5541433 L88.810405,71.3933956 L87.0261059,71.3933956 L86.9912773,71.5648598 L87.6905296,71.8676012 L87.3234891,72.534704 Z M82.4635514,75.5219315 L82.5948287,75.637134 L84.7970717,73.9278505 L84.7434891,73.7671028 L81.9545171,73.7644237 L81.9196885,73.938567 L83.063676,74.4315265 L82.4635514,75.5219315 Z M91.6261682,89.3435514 L91.6181308,89.5176947 L92.5665421,89.7534579 L92.2450467,90.677757 L92.3950779,90.7661682 L93.908785,89.1292212 L93.8284112,88.9818692 L91.6261682,89.3435514 Z M98.2811215,73.6304673 L98.4150779,73.7456698 L99.8242991,72.6499065 L99.7707165,72.491838 L97.9864174,72.491838 L97.9515888,72.6606231 L98.6508411,72.9633645 L98.2811215,73.6304673 Z M80.4729595,97.3541433 L78.6859813,97.3541433 L78.6511526,97.5229283 L79.350405,97.8283489 L78.9806854,98.4954517 L79.1146417,98.6106542 L80.5292212,97.514891 L80.4729595,97.3541433 Z M93.2765109,72.8079751 L93.4104673,72.9231776 L95.1706542,71.5541433 L95.1170717,71.3933956 L92.8853583,71.3933956 L92.8478505,71.5648598 L93.7480374,71.9533333 L93.2765109,72.8079751 Z M89.8552648,84.6818692 L91.0796262,84.9149533 L90.7340187,86.1152025 L90.8894081,86.1928972 L92.6629907,84.0415576 L92.5719003,83.8968847 L89.8525857,84.5077259 L89.8552648,84.6818692 Z M91.5672274,68.7919626 L100.644112,68.8080374 C100.644112,68.8080374 103.510779,69.8850467 107.274953,71.401433 C109.002991,72.0980062 109.924611,73.6572586 109.777259,75.4361994 C109.777259,75.4361994 111.264174,76.9257944 112.092025,77.8661682 C113.077944,79.0074766 113.187788,80.588162 112.41352,81.6223053 C111.644611,82.6350156 110.546168,82.8868536 110.090717,82.9538318 L109.999626,82.7823676 C110.597072,82.1849221 110.353271,81.2231153 109.825483,80.4595639 C109.273583,79.6638629 108.777944,79.51919 108.212648,79.8621184 C107.96081,80.0175078 107.639315,80.253271 107.639315,80.253271 L109.053894,82.5090966 L109.000312,82.6671651 C107.880436,82.9806231 106.329221,82.728785 105.603178,81.8125234 C105.571028,81.8125234 105.571028,81.8125234 98.6133333,81.8098442 L98.6026168,81.994704 L102.495389,82.6966355 L102.610592,82.9699065 L89.2658567,98.6615576 L89.3917757,98.7821184 L93.9355763,94.7205607 L93.9436137,98.2650467 L93.5256698,99.3313396 L93.9516511,101.81757 L93.8016199,102.875826 L97.9596262,106.422991 L97.9623053,106.422991 C97.9623053,106.422991 98.0266044,106.45514 98.0748287,106.476573 C98.1203738,106.498006 98.1739564,106.527477 98.2355763,106.562305 C98.2971963,106.594455 98.3641745,106.631963 98.4338318,106.674829 C98.5061682,106.715016 98.5758255,106.768598 98.6508411,106.819502 C98.731215,106.867726 98.7981931,106.937383 98.8758879,106.990966 C98.9482243,107.057944 99.0232399,107.116885 99.0928972,107.1919 C99.1679128,107.258879 99.2295327,107.336573 99.29919,107.411589 C99.3581308,107.494642 99.425109,107.569657 99.4760125,107.655389 C99.5403115,107.735763 99.5831776,107.824174 99.6367601,107.904548 C99.676947,107.99296 99.7305296,108.070654 99.7626791,108.153707 C99.802866,108.239439 99.8376947,108.319813 99.8671651,108.394829 C99.9019938,108.472523 99.9234268,108.542181 99.9448598,108.601121 C99.968972,108.665421 99.990405,108.724361 100.001121,108.780623 C100.030592,108.887788 100.052025,108.94405 100.052025,108.94405 L100.231526,108.952087 C100.231526,108.952087 100.258318,108.893146 100.295826,108.79134 C100.314579,108.740436 100.336012,108.676137 100.346729,108.593084 C100.362804,108.510031 100.376199,108.416262 100.370841,108.317134 C100.37352,108.263551 100.37352,108.212648 100.37352,108.156386 C100.368162,108.105483 100.357445,108.046542 100.354766,107.99296 C100.341371,107.875078 100.301184,107.757196 100.269034,107.631277 C100.22081,107.516075 100.175265,107.384798 100.102928,107.272274 C100.041308,107.151713 99.9528972,107.044548 99.8698442,106.932025 C99.7760748,106.832897 99.6849844,106.73109 99.5778193,106.650717 C99.4760125,106.556947 99.36081,106.489969 99.2509657,106.42567 C99.1357632,106.369408 99.0232399,106.315826 98.9133956,106.280997 C98.8705296,106.264922 98.8276636,106.248847 98.7847975,106.24081 C99.3072274,106.122928 99.8242991,106.007726 100.336012,105.895202 L100.338692,105.895202 C100.338692,105.895202 100.341371,105.897882 100.34405,105.900561 C100.389595,105.919315 100.445857,105.951464 100.504798,105.986293 C100.569097,106.015763 100.633396,106.053271 100.703053,106.101495 C100.775389,106.136324 100.847726,106.192586 100.920062,106.24081 C101.000436,106.286355 101.067414,106.358692 101.145109,106.412274 C101.217445,106.479252 101.29514,106.540872 101.364798,106.615888 C101.437134,106.682866 101.498754,106.76324 101.568411,106.832897 C101.627352,106.91595 101.69433,106.993645 101.747913,107.076698 C101.809533,107.157072 101.852399,107.245483 101.905981,107.328536 C101.946168,107.416947 102.00243,107.494642 102.0319,107.577695 C102.074766,107.660748 102.109595,107.741121 102.139065,107.816137 C102.168536,107.893832 102.192648,107.96081 102.214081,108.025109 C102.238193,108.086729 102.259626,108.14567 102.273022,108.201931 C102.297134,108.306417 102.321246,108.368037 102.321246,108.368037 L102.503427,108.376075 C102.503427,108.376075 102.530218,108.317134 102.565047,108.212648 C102.58648,108.161745 102.605234,108.100125 102.613271,108.014393 C102.632025,107.93134 102.645421,107.834891 102.640062,107.735763 C102.640062,107.68486 102.642741,107.636636 102.642741,107.577695 C102.637383,107.526791 102.629346,107.46785 102.621308,107.411589 C102.610592,107.296386 102.570405,107.181184 102.538255,107.052586 C102.490031,106.937383 102.444486,106.808785 102.37215,106.693583 C102.31053,106.573022 102.224798,106.465857 102.141745,106.356012 C102.047975,106.256885 101.954206,106.152399 101.84704,106.072025 C101.745234,105.980935 101.627352,105.913956 101.520187,105.846978 C101.413022,105.793396 101.308536,105.742492 101.20405,105.710343 C108.515389,104.126978 114.171028,103.058006 114.171028,103.058006 C121.562741,107.435701 121.091215,107.16243 122.626355,108.014393 C125.444798,109.581682 125.326916,114.181745 120.008847,114.181745 C116.003551,114.181745 108.590405,114.864922 104.068037,115.740997 L108.057259,112.121495 L107.92866,111.995576 C107.92866,111.995576 103.987664,114.854206 99.29919,117.198442 L99.2965109,117.201121 C96.7593769,118.227227 92.9309034,119.890966 88.97919,121.648474 L94.8062928,116.134829 L94.6750156,115.998193 C94.6750156,115.998193 87.2323988,121.994081 81.9545171,124.796449 C78.7797508,126.229782 76.0470405,127.480935 74.5065421,128.188224 C72.3712773,129.160748 70.6941433,129.434019 68.3070405,128.587414 C64.5133956,127.242492 63.0371963,126.714704 59.8195639,125.490343 C57.9468536,124.780374 57.8075389,122.141433 59.8034891,121.50648 C60.6742056,121.225171 62.948785,120.501807 64.4598131,120.022243 C65.1215576,120.311589 65.7993769,120.611651 66.4771963,120.906355 C67.5488474,121.380561 68.6258567,121.846729 69.6332087,122.291464 C70.1368847,122.508474 70.624486,122.722804 71.085296,122.926417 C71.2004984,122.974642 71.3130218,123.025545 71.4255452,123.073769 C71.4818069,123.095202 71.5380685,123.121994 71.5943302,123.146106 L71.6720249,123.180935 L71.674704,123.183614 L71.6854206,123.183614 L71.6961371,123.188972 L71.7336449,123.215763 C71.9560125,123.330966 72.1006854,123.432773 72.261433,123.569408 C72.5695327,123.834642 72.7758255,124.150779 72.891028,124.45352 C73.0035514,124.764299 73.0276636,125.056324 73.0115888,125.300125 C73.0035514,125.538567 72.952648,125.726106 72.9204984,125.857383 C72.8776324,125.980623 72.8588785,126.05028 72.8588785,126.05028 L73.0651713,126.133333 C73.0651713,126.133333 73.0946417,126.060997 73.1482243,125.92972 C73.1964486,125.793084 73.268785,125.594829 73.3009346,125.324237 C73.3330841,125.056324 73.3357632,124.716075 73.2312773,124.343676 C73.1267913,123.973956 72.9071028,123.574766 72.5695327,123.239875 C72.408785,123.076449 72.1890966,122.902305 72.0015576,122.781745 L71.9613707,122.760312 L71.945296,122.746916 L71.9077882,122.725483 L71.8274143,122.679938 C71.7765109,122.647788 71.7229283,122.620997 71.6693458,122.591526 C71.5621807,122.529907 71.4550156,122.465607 71.3451713,122.403988 C70.9084735,122.15215 70.4476636,121.889595 69.9707788,121.616324 C69.0170093,121.069782 67.9989408,120.49109 66.9808723,119.90704 C64.7277259,118.61838 62.4745794,117.332399 60.9099688,116.432212 C60.9099688,116.432212 60.8965732,116.424174 60.8885358,116.421495 C60.8885358,116.421495 68.7758879,113.940623 78.8306542,111.181121 L80.4461682,111.89109 L80.4997508,111.786604 L80.5265421,111.73838 L79.58081,110.974829 L77.0919003,108.970841 L75.8568224,108.547539 L75.0370093,106.297072 L73.9198131,105.667477 L72.826729,100.64947 L72.6472274,100.686978 L73.1053583,106.165794 L69.9814953,107.917944 L69.9814953,100.673583 L69.7885981,100.65215 L68.883053,108.290343 L64.6714642,109.112835 L66.1101558,100.807539 L65.9199377,100.767352 L63.345296,109.254829 L59.214081,109.536137 L62.2093458,100.670903 L62.0298442,100.598567 L57.6253583,109.621869 L57.6173209,109.621869 L53.5450467,109.89514 L58.2978193,100.544984 L58.145109,100.451215 L51.6348287,110.08 L47.3026791,110.760498 L54.3407477,100.384237 L54.2041121,100.274393 L42.3570093,114.039751 L41.7193769,113.613769 L52.3314019,96.971028 L68.5803115,90.8974455 C68.5803115,90.8974455 69.6787539,90.4205607 70.3137072,90.1472897 C70.6298442,90.0106542 70.9566978,89.8820561 71.3023053,89.6998754 C71.4791277,89.6195016 71.6371963,89.5150156 71.8086604,89.4212461 C71.9720872,89.3221184 72.1328349,89.2122741 72.2909034,89.1024299 C72.6016822,88.8720249 72.8990654,88.6282243 73.1616199,88.3576324 L73.3598754,88.1566978 C73.4214953,88.0870405 73.4831153,88.0173832 73.5420561,87.9477259 C73.6679751,87.8110903 73.7751402,87.6637383 73.8823053,87.5217445 C73.9921495,87.3797508 74.0832399,87.2270405 74.1796885,87.0877259 C74.2680997,86.9403738 74.3511526,86.7930218 74.4342056,86.6537072 C74.5038629,86.503676 74.5735202,86.3643614 74.6404984,86.230405 C74.7021184,86.0884112 74.7557009,85.9490966 74.8119626,85.8204984 C74.9057321,85.5552648 74.9914642,85.308785 75.0423676,85.0890966 C75.1093458,84.8694081 75.1361371,84.6657944 75.1736449,84.5050467 C75.2004361,84.3442991 75.2138318,84.2210592 75.2272274,84.132648 C75.2379439,84.0469159 75.2433022,84.0013707 75.2433022,84.0013707 L75.0530841,83.9692212 C75.0530841,83.9692212 75.0423676,84.0120872 75.0236137,84.0978193 C75.0048598,84.1835514 74.9807477,84.3094704 74.9405607,84.4595016 C74.8950156,84.6095327 74.8548287,84.7943925 74.7717757,85.0033645 C74.7047975,85.2123364 74.6056698,85.4427414 74.4958255,85.6838629 C74.4342056,85.8044237 74.3672274,85.9276636 74.3029283,86.0562617 C74.2279128,86.1821807 74.1528972,86.3080997 74.0752025,86.4447352 C73.9841121,86.5706542 73.8983801,86.6992523 73.8019315,86.8278505 C73.7001246,86.9537695 73.6063551,87.0877259 73.4938318,87.2082866 C73.3813084,87.3368847 73.2741433,87.4628037 73.1482243,87.5780062 L72.9633645,87.7575078 L72.7677882,87.9262928 C72.5052336,88.1540187 72.2132087,88.3576324 71.9158255,88.5424922 C71.7657944,88.6309034 71.610405,88.7166355 71.4576947,88.7970093 C71.296947,88.8666667 71.1469159,88.9497196 70.9861682,89.0113396 C70.6727103,89.1372586 70.3324611,89.2524611 70.0056075,89.3676636 C69.3572586,89.5980685 68.7517757,89.817757 68.2293458,90.0026168 C67.7176324,90.1874766 67.288972,90.3375078 66.9862305,90.447352 L65.9360125,88.3415576 L68.0525234,86.4795639 L67.9560748,86.3429283 L62.3138318,89.796324 L60.9876636,87.1413084 L68.6044237,81.4990654 L68.4811838,81.343676 L56.8939564,88.2692212 L55.8410592,85.4722118 L66.7585047,78.1823053 L66.6620561,78.0322741 L52.5939564,85.7588785 L51.9295327,83.125296 L63.8328972,75.5647975 L63.7471651,75.4120872 L49.1727103,82.8386293 L48.7520872,79.7308411 L48.7520872,79.728162 L60.7733333,73.2500312 L60.6983178,73.0946417 L45.8211215,79.2995016 L45.7514642,76.2640498 L57.8986293,71.5193146 L57.8343302,71.337134 L43.0964486,75.3692212 L43.273271,72.0524611 L54.4773832,69.4858567 L54.4398754,69.3090343 L40.1011838,71.275514 L40.5593146,68.4115265 L51.1097196,67.2782555 L51.1097196,67.0960748 L36.371838,67.3371963 L36.5942056,64.9179439 L48.3475389,64.8375701 L48.3582555,64.6607477 L27.246729,63.1202492 L27.2119003,62.9193146 L30.6331464,61.7351402 L30.6277882,61.5663551 L21.8804361,58.228162 L21.9018692,58.0433022 L25.40081,57.7619938 L25.4329595,57.5798131 L17.8831776,52.9181308 L17.9233645,52.6582555 L23.2146417,52.963676 L23.2762617,52.794891 L17.1892835,47.0829907 L17.2669782,46.90081 L20.1229283,47.4500312 L20.2113396,47.3080374 L17.3527103,43.7099688 L15.5791277,38.6115888 L15.7586293,38.5231776 L18.4966978,41.9738941 L24.6854829,45.5290966 L24.8167601,45.4085358 L20.8275389,39.5466044 L19.3272274,32.9988162 L19.5147664,32.9157632 L22.7404361,37.756947 L28.988162,42.8419315 L29.1114019,42.7186916 L25.2856075,35.7770717 L23.9701558,27.3137072 L24.1764486,27.2654829 L27.9057944,34.4776947 L35.7449221,40.985296 L35.8949533,40.8620561 L30.49919,32.2057944 L29.282866,21.8214953 L29.4596885,21.7679128 L32.8219938,30.9733956 L43.9269782,40.9719003 L57.9334579,48.1439252 L73.3062928,69.5019315 L79.2861059,74.5440498 L79.4307788,74.4047352 L76.813271,70.9915265 L76.8293458,70.9888474 L76.8400623,70.9861682 L76.813271,70.9888474 L82.9699065,69.4028037 L82.95919,69.2099065 L77.608972,68.8991277 L77.5955763,68.7196262 L85.4454206,67.3184424 L85.4239875,67.1442991 L75.6290966,66.3995016 L75.6210592,66.2119626 L88.1111526,64.1195639 L93.0728972,65.2930218 L93.1264798,65.1215576 L88.3951402,62.9434268 L80.6444237,63.1175701 L80.6256698,62.9300312 L88.8961371,61.3707788 L94.0213084,63.1256075 L94.0909657,62.9514642 L89.44,60.0017445 L83.945109,59.7793769 L83.9424299,59.5811215 L90.1017445,58.627352 L95.4841121,61.1510903 L95.5832399,60.9930218 L91.1358879,56.8189408 L86.3054206,56.8001869 L86.2866667,56.6019315 L92.1727103,55.2864798 L97.3943302,59.5784424 L97.5122118,59.4552025 L93.5042368,53.5852336 L89.1265421,52.7654206 L89.145296,52.5832399 L94.6750156,52.251028 L99.6635514,58.3219315 L99.8162617,58.2201246 L96.2315888,50.6649844 L91.4413084,49.103053 L91.4788162,48.915514 L97.5818692,49.4138318 L102.211402,57.3815576 L102.374829,57.3065421 L99.2965109,47.9590654 L93.2925857,45.8157632 L93.3300935,45.6282243 L100.595888,46.9356386 L104.64405,56.5456698 L104.823551,56.4920872 L102.163178,45.7728972 L95.733271,42.1266044 L95.816324,41.9471028 L103.470592,44.8593146 L107.124922,55.5972586 L107.307103,55.5570717 L105.019128,43.8332087 L98.0239252,38.7321495 L98.1257321,38.5714019 L106.27296,43.0348287 L109.463801,54.3327103 L109.65134,54.2952025 L107.650031,42.1989408 L100.317259,35.6886604 L100.429782,35.5466667 L109.011028,41.3978816 L111.486542,52.9127726 L111.660685,52.8752648 L110.409533,40.6370093 L103.095514,32.7255452 L103.221433,32.5781931 L111.692835,39.8279128 L113.557508,50.9757632 L113.747726,50.9623676 L112.927913,39.2438629 L106.005047,30.2018069 L106.139003,30.078567 L114.286231,38.5981931 L115.574891,48.2484112 L115.751713,48.2296573 L115.336449,38.0302181 L109.011028,28.3290966 L109.153022,28.2165732 L116.483115,37.4997508 L117.458318,44.4306542 L117.645857,44.4119003 L117.305607,36.9987539 L112.804673,26.9466667 L112.962741,26.8555763 L118.546044,36.3771963 L119.065794,40.2860436 L119.245296,40.2672897 L119.51053,35.8172586 L117.179688,26.3545794 L117.356511,26.2902804 L120.563427,34.2285358 L120.742928,34.2285358 L122.720125,26.2983178 L122.915701,26.3438629 L122.267352,34.1454829 L122.441495,34.2044237 L127.869408,26.3947664 L128.030156,26.4885358 L124.507103,33.54 L124.630343,33.6685981 L132.922243,27.7477259 L133.02405,27.897757 L120.373209,44.9584424 C120.373209,44.9584424 116.287539,55.9026791 114.958692,59.5570093 C114.693458,60.2803738 114.232648,60.7492212 113.541433,61.038567 C113.144922,61.1966355 103.29109,65.1349533 103.29109,65.1349533 L100.582492,67.5193769 L91.5404361,68.5856698 L91.5672274,68.7919626 Z M77.694704,0 C34.7857944,0 0,34.7857944 0,77.694704 C0,120.606293 34.7857944,155.389408 77.694704,155.389408 C120.606293,155.389408 155.389408,120.606293 155.389408,77.694704 C155.389408,34.7857944 120.606293,0 77.694704,0 L77.694704,0 Z M89.1319003,79.4870405 L90.6134579,79.8058567 L90.1553271,81.2499065 L90.3080374,81.3356386 L92.502243,78.8092212 L92.4165109,78.6645483 L89.1319003,79.3128972 L89.1319003,79.4870405 Z M95.2403115,85.8419315 L95.9797508,86.0241121 L95.7279128,86.7474766 L95.8779439,86.8358879 L97.0889097,85.5231153 L97.0085358,85.3730841 L95.2483489,85.6677882 L95.2403115,85.8419315 Z M83.4307165,110.350592 C83.5057321,110.3881 83.5780685,110.441682 83.6557632,110.489907 C83.7334579,110.535452 83.8004361,110.60243 83.8834891,110.656012 C83.9531464,110.722991 84.0308411,110.781931 84.1004984,110.854268 C84.1219315,110.870343 84.1380062,110.886417 84.1567601,110.905171 C84.2076636,110.956075 84.2558879,111.015016 84.3148287,111.071277 C84.3737695,111.148972 84.4407477,111.229346 84.4970093,111.30972 C84.5586293,111.387414 84.6041745,111.475826 84.6604361,111.556199 C84.7033022,111.639252 84.7595639,111.719626 84.7917134,111.805358 C84.8345794,111.885732 84.8720872,111.963427 84.9015576,112.038442 C84.9363863,112.118816 84.9604984,112.185794 84.9819315,112.247414 C85.0087227,112.309034 85.0301558,112.365296 85.0435514,112.424237 C85.0757009,112.526044 85.0998131,112.587664 85.0998131,112.587664 L85.2793146,112.587664 C85.2793146,112.587664 85.3034268,112.534081 85.3382555,112.429595 C85.3570093,112.376012 85.3757632,112.314393 85.3838006,112.22866 C85.3971963,112.142928 85.4105919,112.049159 85.4052336,111.950031 C85.4025545,111.901807 85.4025545,111.845545 85.4025545,111.794642 C85.3945171,111.735701 85.3864798,111.684798 85.3784424,111.625857 C85.3650467,111.505296 85.3221807,111.392773 85.2846729,111.266854 C85.2337695,111.148972 85.1855452,111.025732 85.1132087,110.913209 C85.0730218,110.835514 85.0194393,110.765857 84.9658567,110.696199 L84.8747664,110.580997 C84.7783178,110.47919 84.6845483,110.380062 84.574704,110.299688 C84.4702181,110.211277 84.3523364,110.146978 84.2451713,110.085358 C84.1272897,110.029097 84.0147664,109.980872 83.902243,109.946044 C83.8486604,109.929969 83.7950779,109.911215 83.7414953,109.900498 C83.7093458,109.89514 83.6771963,109.892461 83.6477259,109.887103 C83.6262928,109.881745 83.6048598,109.881745 83.5834268,109.876386 C83.4896573,109.854953 83.3958879,109.854953 83.315514,109.860312 C83.2351402,109.854953 83.1628037,109.86567 83.1092212,109.876386 C82.9940187,109.89514 82.9323988,109.911215 82.9323988,109.911215 L82.9190031,110.08 L82.9190031,110.090717 C82.9190031,110.090717 82.9752648,110.122866 83.0663551,110.160374 C83.1145794,110.179128 83.1708411,110.211277 83.2324611,110.240748 C83.294081,110.272897 83.3610592,110.310405 83.4307165,110.350592 L83.4307165,110.350592 Z M90.4795016,113.18243 C90.2973209,113.241371 90.0829907,113.297632 89.8445483,113.36729 C89.4266044,113.485171 88.9309657,113.627165 88.3790654,113.798629 C87.9477259,113.924548 87.4788785,114.066542 86.9805607,114.219252 C86.734081,114.291589 86.4795639,114.369283 86.2170093,114.449657 L85.4266667,114.720249 C84.3576947,115.08729 83.2163863,115.481121 82.0804361,115.877632 C81.3517134,116.134829 80.6337072,116.4081 79.937134,116.673333 C79.5379439,116.826044 79.1467913,116.976075 78.7583178,117.123427 C78.4019938,117.257383 78.0590654,117.39134 77.7268536,117.522617 C77.5607477,117.589595 77.3973209,117.651215 77.2392523,117.715514 C76.8641745,117.860187 76.5078505,118.012897 76.1729595,118.152212 L75.888972,118.272773 C75.3397508,118.492461 74.8494704,118.704112 74.442243,118.875576 C74.2305919,118.966667 74.0403738,119.04972 73.8742679,119.116698 C73.3893458,119.328349 73.1133956,119.446231 73.1133956,119.446231 L73.057134,119.473022 L73.1669782,119.743614 L73.2205607,119.727539 C73.2205607,119.727539 73.5072274,119.628411 74.0055452,119.451589 C74.1770093,119.392648 74.3725857,119.320312 74.589595,119.242617 C75.0075389,119.095265 75.5058567,118.918442 76.0604361,118.714829 L76.4757009,118.55676 C76.7784424,118.446916 77.0972586,118.329034 77.4294704,118.211153 L77.9117134,118.042368 C78.2519626,117.921807 78.6056075,117.798567 78.9619315,117.661931 C79.3450467,117.525296 79.7335202,117.380623 80.1300312,117.238629 C80.8319626,116.976075 81.5553271,116.708162 82.286729,116.459003 C83.42,116.051776 84.553271,115.647227 85.6168847,115.266791 C86.125919,115.084611 86.6483489,114.894393 87.1493458,114.728287 C87.511028,114.602368 87.8593146,114.484486 88.1861682,114.371963 L88.5290966,114.254081 C89.0809969,114.069221 89.565919,113.895078 89.9785047,113.747726 C90.2089097,113.670031 90.4098442,113.592336 90.5920249,113.533396 L91.4225545,113.225296 L91.3368224,112.943988 L90.4795016,113.18243 Z M75.4013707,115.805296 L76.0416822,115.590966 C76.8722118,115.328411 77.6893458,115.05514 78.4743302,114.784548 C78.7797508,114.682741 79.077134,114.580935 79.3611215,114.481807 L79.5915265,114.401433 L80.5961994,114.066542 C81.0195016,113.929907 81.3919003,113.798629 81.7,113.691464 C81.8446729,113.635202 81.9813084,113.589657 82.0965109,113.54947 C82.4608723,113.418193 82.664486,113.343178 82.664486,113.343178 L82.7180685,113.319065 L82.6350156,113.040436 L82.581433,113.053832 C82.581433,113.053832 82.3644237,113.099377 81.9920249,113.187788 L81.6973209,113.260125 C81.3570717,113.343178 80.9337695,113.444984 80.4515265,113.573583 L79.4254206,113.841495 C79.1709034,113.913832 78.9083489,113.994206 78.6350779,114.077259 L78.2921495,114.184424 C77.5714642,114.404112 76.7462928,114.669346 75.8380685,114.966729 C75.1682866,115.189097 74.5119003,115.42486 73.8742679,115.652586 L73.4080997,115.818692 L73.1723364,115.904424 C72.4945171,116.150903 71.8568847,116.386667 71.3076636,116.603676 C71.0665421,116.697445 70.8441745,116.788536 70.6405607,116.86891 L70.4744548,116.938567 L69.8314642,117.195763 C69.4804984,117.348474 69.2768847,117.428847 69.2768847,117.428847 L69.2233022,117.45296 L69.325109,117.726231 C69.325109,117.726231 69.5876636,117.648536 69.954704,117.538692 C70.0859813,117.498505 70.2306542,117.458318 70.394081,117.402056 L70.8629283,117.262741 C71.0558255,117.201121 71.2594393,117.142181 71.4710903,117.069844 C71.8568847,116.938567 72.2855452,116.80729 72.743676,116.662617 C73.0196262,116.574206 73.308972,116.485794 73.6063551,116.389346 C74.1850467,116.201807 74.7878505,116.003551 75.4013707,115.805296 L75.4013707,115.805296 Z M88.076324,93.4319003 L88.0682866,93.6060436 L89.0166978,93.8418069 L88.6925234,94.7634268 L88.8425545,94.8545171 L90.3589408,93.2202492 L90.2758879,93.0675389 L88.076324,93.4319003 Z M86.4661682,91.1707165 L88.411215,88.2745794 L88.3094081,88.1406231 L84.9980062,89.2337072 L85.0167601,89.4024922 L86.5947664,89.5471651 L86.3027414,91.1064174 L86.4661682,91.1707165 Z M96.7968847,80.6872897 L94.5758879,80.8801869 L94.557134,81.0543302 L95.4841121,81.3624299 L95.0876012,82.2572586 L95.2322741,82.3590654 L96.8665421,80.84 L96.7968847,80.6872897 Z M86.4313396,105.501371 L81.8366355,99.8912773 L81.6035514,99.9930841 L82.7823676,106.674829 L85.1989408,109.477196 C85.1989408,109.477196 85.2685981,109.512025 85.3248598,109.541495 C85.3757632,109.560249 85.4293458,109.58972 85.4936449,109.61919 C85.5499065,109.65134 85.6195639,109.686168 85.6892212,109.729034 C85.7615576,109.769221 85.8365732,109.814766 85.9115888,109.86567 C85.9892835,109.911215 86.0589408,109.980872 86.1393146,110.031776 C86.208972,110.101433 86.2920249,110.157695 86.3590031,110.23271 C86.4340187,110.29433 86.5009969,110.374704 86.5679751,110.44972 C86.629595,110.530093 86.6965732,110.60243 86.755514,110.685483 C86.817134,110.765857 86.8626791,110.851589 86.9189408,110.931963 C86.9591277,111.017695 87.0153894,111.095389 87.0502181,111.178442 C87.090405,111.258816 87.1305919,111.341869 87.1600623,111.419564 C87.194891,111.4919 87.216324,111.561558 87.2404361,111.620498 C87.2645483,111.684798 87.2886604,111.743738 87.3020561,111.8 C87.3315265,111.904486 87.3556386,111.963427 87.3556386,111.963427 L87.5351402,111.966106 C87.5351402,111.966106 87.5646106,111.907165 87.5967601,111.805358 C87.6128349,111.754455 87.6315888,111.687477 87.6423053,111.601745 C87.6530218,111.521371 87.6664174,111.424922 87.6610592,111.325794 L87.6610592,111.165047 C87.6503427,111.116822 87.6449844,111.057882 87.636947,111.004299 C87.6208723,110.886417 87.5780062,110.765857 87.5431776,110.645296 C87.4922741,110.530093 87.446729,110.404174 87.3717134,110.288972 C87.3074143,110.168411 87.216324,110.063925 87.1305919,109.954081 C87.0368224,109.854953 86.9403738,109.755826 86.8305296,109.678131 C86.7287227,109.58972 86.6108411,109.525421 86.5009969,109.458442 C86.3831153,109.410218 86.273271,109.353956 86.1607477,109.324486 C86.104486,109.305732 86.0509034,109.289657 86,109.276262 L85.9866044,109.276262 C86.0482243,109.257508 86.1125234,109.244112 86.1741433,109.230717 C86.6215576,109.115514 87.068972,109.000312 87.5217445,108.887788 C87.5378193,108.893146 87.5592523,108.903863 87.5860436,108.9119 C87.6315888,108.933333 87.6878505,108.960125 87.7467913,108.997632 C87.8084112,109.027103 87.8753894,109.061931 87.9477259,109.104798 C88.0200623,109.142305 88.0923988,109.19053 88.1674143,109.241433 C88.2477882,109.284299 88.3174455,109.356636 88.3951402,109.410218 C88.4674766,109.474517 88.5478505,109.530779 88.6175078,109.605794 C88.6925234,109.672773 88.7568224,109.750467 88.8264798,109.822804 C88.8880997,109.903178 88.9550779,109.980872 89.0113396,110.061246 C89.0729595,110.138941 89.1211838,110.230031 89.1747664,110.310405 C89.2176324,110.393458 89.2738941,110.471153 89.3087227,110.559564 C89.3489097,110.634579 89.3864174,110.714953 89.4158879,110.792648 C89.4507165,110.870343 89.4721495,110.934642 89.4989408,110.998941 C89.523053,111.057882 89.544486,111.122181 89.5605607,111.173084 C89.5900312,111.280249 89.6141433,111.341869 89.6141433,111.341869 L89.796324,111.341869 C89.796324,111.341869 89.8204361,111.280249 89.8552648,111.178442 C89.8740187,111.127539 89.8900935,111.06324 89.90081,110.980187 C89.9115265,110.899813 89.9249221,110.800685 89.9195639,110.701558 C89.9195639,110.650654 89.9195639,110.597072 89.9168847,110.546168 C89.9088474,110.489907 89.90081,110.436324 89.8927726,110.377383 C89.8793769,110.259502 89.8365109,110.144299 89.8016822,110.01838 C89.7507788,109.903178 89.7025545,109.779938 89.6275389,109.667414 C89.565919,109.546854 89.4775078,109.439688 89.3890966,109.332523 C89.2953271,109.233396 89.1988785,109.131589 89.0890343,109.053894 C88.9872274,108.965483 88.8693458,108.898505 88.7595016,108.834206 C88.6416199,108.783302 88.5290966,108.72972 88.4165732,108.69757 C88.3951402,108.692212 88.371028,108.684174 88.349595,108.678816 C89.6061059,108.365358 90.8760125,108.054579 92.1432399,107.757196 L88.0334579,105.4719 L86.4313396,105.501371 Z M94.1016822,75.784486 L95.2456698,76.2801246 L94.6455452,77.3705296 L94.7795016,77.4857321 L96.9817445,75.7764486 L96.9254829,75.6183801 L94.13919,75.6157009 L94.1016822,75.784486 Z M53.7004361,50.3488474 L48.4895327,53.0119003 L48.2055452,51.4687227 L47.9537072,51.4928349 L47.9322741,54.054081 L48.1305296,54.1505296 L53.8263551,50.5551402 L53.7004361,50.3488474 Z M58.6862928,56.6447975 L51.3963863,60.5911526 L51.1123988,59.0479751 L50.8846729,59.0720872 L50.8391277,61.6333333 L51.0400623,61.7458567 L58.814891,56.8457321 L58.6862928,56.6447975 Z M56.3072274,53.4164486 L49.41919,57.0654206 L49.1378816,55.5249221 L48.894081,55.5543925 L48.8619315,58.1102804 L49.0521495,58.2094081 L56.4358255,53.6227414 L56.3072274,53.4164486 Z M67.0773209,66.0003115 L61.8717757,68.6580062 L61.585109,67.1442991 L61.354704,67.1764486 L61.3145171,69.702866 L61.4966978,69.7993146 L67.2032399,66.2092835 L67.0773209,66.0003115 Z M64.2454829,62.9032399 L57.9602492,66.1717757 L57.6762617,64.625919 L57.4324611,64.6607477 L57.4003115,67.2085981 L57.5851713,67.3238006 L64.3767601,63.1095327 L64.2454829,62.9032399 Z M61.4323988,59.8704673 L54.2978816,63.5944548 L54.0138941,62.0485981 L53.7647352,62.0727103 L53.7406231,64.6393146 L53.9442368,64.7384424 L61.5583178,60.0714019 L61.4323988,59.8704673 Z M44.5297819,55.9267913 L44.6047975,55.6374455 L28.5782555,51.2356386 L21.3580062,45.3683489 L21.165109,45.558567 L27.8468536,52.3287227 L44.5297819,55.9267913 Z M44.9798754,52.6609346 L45.0790031,52.3715888 L31.5092212,47.9858567 L24.8060436,41.6872274 L24.6077882,41.9042368 L30.625109,49.0066044 L44.9798754,52.6609346 Z M88.349595,74.6351402 L89.4935826,75.1361371 L88.8880997,76.2238629 L89.0220561,76.3390654 L91.2296573,74.6378193 L91.1760748,74.4770717 L88.3871028,74.463676 L88.349595,74.6351402 Z M28.5675389,59.1819315 L34.4776947,60.9046106 L46.1613707,61.9762617 L46.1988785,61.668162 L28.631838,58.8925857 L28.5675389,59.1819315 Z M30.0892835,39.0375701 L29.8722741,39.2090343 L34.7831153,45.9657944 L46.648972,49.9041121 L46.7588162,49.6147664 L35.7690343,45.0870405 L30.0892835,39.0375701 Z M69.4403115,69.2527726 L65.7082866,71.0263551 L65.4269782,69.617134 L65.191215,69.6251713 L65.151028,72.0685358 L65.3626791,72.1623053 L69.5689097,69.4537072 L69.4403115,69.2527726 Z M44.7441121,58.5442991 L22.5421807,53.9656698 L22.4564486,54.2496573 L28.2192523,56.3554517 L44.6798131,58.857757 L44.7441121,58.5442991 Z M51.2677882,48.3555763 L51.4071028,48.076947 L41.1380062,43.1446729 L34.8849221,34.8233022 L34.6545171,34.986729 L40.2404984,44.0984424 L51.2677882,48.3555763 Z M94.6482243,112.175078 C94.6482243,112.175078 94.7553894,112.161682 94.9456075,112.134891 C95.0072274,112.126854 95.0742056,112.116137 95.1519003,112.100062 C95.312648,112.07595 95.5055452,112.04648 95.7198754,112.008972 C96.0842368,111.941994 96.4512773,111.869657 96.8102804,111.791963 C97.1451713,111.719626 97.4988162,111.639252 97.8578193,111.556199 L98.0775078,111.505296 C98.4820561,111.419564 98.9,111.325794 99.2831153,111.232025 C99.7064174,111.130218 100.065421,111.036449 100.352087,110.953396 C100.555701,110.899813 100.737882,110.843551 100.890592,110.795327 C100.970966,110.773894 101.043302,110.749782 101.107601,110.731028 C101.289782,110.674766 101.391589,110.639938 101.391589,110.639938 L101.439813,110.618505 L101.386231,110.345234 L101.332648,110.345234 C101.332648,110.345234 101.222804,110.350592 101.032586,110.374704 C100.968287,110.382741 100.890592,110.393458 100.807539,110.404174 C100.64947,110.425607 100.459252,110.44704 100.25028,110.476511 C99.9314642,110.524735 99.5617445,110.583676 99.151838,110.661371 C98.7553271,110.728349 98.3239875,110.819439 97.9033645,110.90785 C97.1424922,111.090031 96.3039252,111.320436 95.607352,111.540125 C95.3823053,111.607103 95.1894081,111.67676 95.0286604,111.727664 L94.8598754,111.786604 C94.6803738,111.845545 94.5758879,111.885732 94.5758879,111.885732 L94.5276636,111.907165 L94.5946417,112.180436 L94.6482243,112.175078 Z M104.049283,107.998318 C104.049283,107.998318 104.185919,107.99028 104.42972,107.955452 C104.504735,107.947414 104.590467,107.934019 104.686916,107.923302 C104.89053,107.89919 105.139688,107.872399 105.415639,107.826854 C106.315826,107.698255 107.400872,107.521433 108.402866,107.331215 L108.654704,107.280312 C109.110156,107.1919 109.560249,107.106168 109.983551,107.00972 C110.200561,106.966854 110.409533,106.921308 110.610467,106.881121 C110.881059,106.827539 111.135576,106.773956 111.365981,106.720374 C111.636573,106.661433 111.877695,106.602492 112.07595,106.554268 L112.338505,106.492648 C112.574268,106.436386 112.705545,106.396199 112.705545,106.396199 L112.759128,106.382804 L112.710903,106.101495 L112.654642,106.104174 C112.654642,106.104174 112.518006,106.112212 112.276885,106.139003 L112.041121,106.163115 C111.83215,106.187227 111.574953,106.214019 111.282928,106.248847 L111.199875,106.259564 C110.806044,106.313146 110.361308,106.369408 109.887103,106.447103 C109.388785,106.532835 108.85028,106.631963 108.33053,106.725732 L108.293022,106.736449 C107.31514,106.918629 106.232773,107.146355 105.327227,107.360685 C105.067352,107.424984 104.836947,107.481246 104.64405,107.53215 C104.536885,107.56162 104.443115,107.585732 104.357383,107.604486 C104.12162,107.666106 103.990343,107.703614 103.990343,107.703614 L103.939439,107.719688 L103.995701,108.003676 L104.049283,107.998318 Z M95.9663551,107.138318 C96.025296,107.175826 96.0922741,107.210654 96.1646106,107.250841 C96.2342679,107.291028 96.3066044,107.341931 96.3816199,107.392835 C96.4593146,107.441059 96.5262928,107.516075 96.6066667,107.564299 C96.6414953,107.601807 96.6790031,107.636636 96.71919,107.668785 C96.7540187,107.698255 96.7915265,107.730405 96.823676,107.770592 C96.8960125,107.834891 96.9576324,107.915265 97.0272897,107.99296 C97.0862305,108.070654 97.1558879,108.14567 97.2067913,108.231402 C97.2657321,108.311776 97.3139564,108.400187 97.3648598,108.480561 C97.4077259,108.568972 97.4613084,108.652025 97.4934579,108.732399 C97.5336449,108.812773 97.5684735,108.893146 97.5979439,108.970841 C97.6274143,109.048536 97.6515265,109.118193 97.6756386,109.177134 C97.6970717,109.238754 97.7211838,109.300374 97.7319003,109.353956 C97.7586916,109.461121 97.7828037,109.525421 97.7828037,109.525421 L97.9623053,109.530779 C97.9623053,109.530779 97.9890966,109.469159 98.0266044,109.367352 C98.0453583,109.316449 98.0641121,109.24947 98.0748287,109.166417 C98.0909034,109.086044 98.1069782,108.992274 98.1016199,108.890467 C98.1042991,108.839564 98.1042991,108.785981 98.1042991,108.732399 C98.0962617,108.678816 98.0882243,108.619875 98.082866,108.563614 C98.0721495,108.448411 98.0319626,108.333209 97.997134,108.20729 C97.9489097,108.092087 97.9033645,107.966168 97.8337072,107.850966 C97.7694081,107.725047 97.6863551,107.620561 97.6006231,107.510717 C97.5818692,107.489283 97.5631153,107.46785 97.5416822,107.446417 C97.4693458,107.366044 97.3916511,107.291028 97.305919,107.22405 C97.2041121,107.135639 97.0889097,107.065981 96.9817445,107.001682 C96.8665421,106.945421 96.7540187,106.889159 96.6414953,106.857009 C96.5879128,106.840935 96.5343302,106.819502 96.4807477,106.806106 C96.4378816,106.798069 96.3950156,106.790031 96.3521495,106.784673 L96.3494704,106.784673 L96.3333956,106.779315 C96.2315888,106.760561 96.1378193,106.760561 96.0574455,106.757882 C95.9770717,106.752523 95.9074143,106.760561 95.8511526,106.771277 C95.7359502,106.784673 95.6716511,106.798069 95.6716511,106.798069 L95.6609346,106.940062 L95.6582555,106.940062 L95.6555763,106.980249 C95.6555763,106.980249 95.711838,107.00972 95.8056075,107.055265 C95.8511526,107.076698 95.9020561,107.106168 95.9663551,107.138318 L95.9663551,107.138318 Z M104.55296,80.1862928 C104.563676,80.2371963 104.58243,80.2907788 104.595826,80.3390031 C104.6119,80.3899065 104.619938,80.4381308 104.641371,80.4783178 C104.668162,80.5211838 104.686916,80.5560125 104.708349,80.5935202 C104.729782,80.6283489 104.748536,80.6604984 104.76729,80.6872897 C104.788723,80.7167601 104.815514,80.7381931 104.834268,80.7596262 C104.914642,80.84 104.965545,80.8775078 104.965545,80.8775078 L105.075389,80.797134 C105.075389,80.797134 105.070031,80.735514 105.051277,80.6471028 C105.045919,80.6229907 105.04324,80.5961994 105.040561,80.5694081 C105.040561,80.5399377 105.037882,80.5104673 105.037882,80.4809969 C105.035202,80.4220561 105.035202,80.357757 105.045919,80.2854206 C105.051277,80.2130841 105.075389,80.1434268 105.094143,80.0710903 C105.099502,80.0362617 105.115576,79.9987539 105.137009,79.9692835 C105.158442,79.9317757 105.163801,79.8942679 105.185234,79.8621184 C105.233458,79.7951402 105.270966,79.7254829 105.313832,79.6879751 C105.332586,79.6638629 105.343302,79.645109 105.396885,79.602243 L105.463863,79.5459813 L105.496012,79.5218692 L105.501371,79.51919 C105.573707,79.4816822 105.629969,79.4280997 105.707664,79.4120249 C105.78,79.371838 105.855016,79.3638006 105.930031,79.3423676 C105.970218,79.3343302 106.005047,79.3423676 106.045234,79.3343302 C106.082741,79.3262928 106.122928,79.3236137 106.160436,79.3316511 C106.192586,79.3343302 106.230093,79.3396885 106.230093,79.3396885 C106.30243,79.3423676 106.334579,79.3530841 106.369408,79.3611215 C106.441745,79.3745171 106.492648,79.3905919 106.546231,79.4120249 C106.573022,79.4200623 106.594455,79.4307788 106.621246,79.4388162 C106.650717,79.4522118 106.67215,79.4682866 106.696262,79.4816822 C106.781994,79.5379439 106.835576,79.5647352 106.835576,79.5647352 L106.974891,79.4441745 C106.974891,79.4441745 106.956137,79.3879128 106.913271,79.2941433 C106.902555,79.2646729 106.891838,79.2432399 106.875763,79.2137695 C106.85433,79.1869782 106.830218,79.1548287 106.800748,79.12 C106.771277,79.0905296 106.739128,79.0503427 106.706978,79.015514 C106.67215,78.9806854 106.629283,78.9592523 106.586417,78.9244237 C106.543551,78.8949533 106.500685,78.8628037 106.449782,78.8333333 C106.401558,78.8092212 106.345296,78.7904673 106.289034,78.7663551 C106.230093,78.7449221 106.168474,78.7261682 106.104174,78.7181308 C106.039875,78.7074143 105.975576,78.6940187 105.905919,78.6913396 C105.769283,78.6966978 105.62729,78.7020561 105.490654,78.7502804 C105.345981,78.7824299 105.222741,78.868162 105.091464,78.9378193 L105.056636,78.972648 L105.051277,78.9753271 L105.035202,78.9887227 L105.003053,79.0181931 L104.938754,79.077134 C104.901246,79.1039252 104.850343,79.1735826 104.799439,79.2378816 C104.689595,79.371838 104.646729,79.5031153 104.595826,79.6290343 C104.566355,79.7576324 104.534206,79.8889097 104.544922,80.0094704 C104.547601,80.0684112 104.547601,80.127352 104.55296,80.1862928 L104.55296,80.1862928 Z M104.869097,74.9834268 L104.885171,75.0396885 L104.893209,75.0905919 L104.954829,75.2245483 C104.973583,75.2888474 105.045919,75.3960125 105.110218,75.4763863 C105.147726,75.5219315 105.182555,75.5621184 105.217383,75.5889097 C105.249533,75.6264174 105.28704,75.6558879 105.324548,75.6826791 C105.386168,75.7362617 105.450467,75.7684112 105.514766,75.8032399 L105.581745,75.8407477 C105.755888,75.9077259 105.921994,75.9452336 106.074704,75.9452336 C106.074704,75.9452336 106.125607,75.9398754 106.168474,75.9371963 C106.256885,75.9291589 106.350654,75.9238006 106.433707,75.888972 L106.556947,75.8514642 L106.591776,75.8380685 L106.650717,75.8085981 L106.685545,75.7818069 C106.773956,75.7389408 106.990966,75.5728349 107.060623,75.4522741 C107.149034,75.3397508 107.210654,75.2084735 107.248162,75.0450467 L107.258879,74.9968224 C107.269595,74.9539564 107.280312,74.903053 107.280312,74.8494704 C107.277632,74.7932087 107.274953,74.7423053 107.274953,74.6887227 C107.266916,74.6083489 107.242804,74.5360125 107.22405,74.4797508 L107.205296,74.4181308 C107.140997,74.2895327 107.095452,74.2305919 107.095452,74.2305919 L107.063302,74.1850467 L106.851651,74.2654206 L106.846293,74.3056075 C106.846293,74.3056075 106.835576,74.3833022 106.838255,74.4717134 C106.832897,74.4931464 106.827539,74.5145794 106.822181,74.5360125 C106.816822,74.5708411 106.808785,74.611028 106.79271,74.6485358 C106.784673,74.6753271 106.768598,74.7074766 106.755202,74.7396262 C106.747165,74.7583801 106.733769,74.777134 106.723053,74.7958879 L106.696262,74.8441121 C106.690903,74.8521495 106.677508,74.8682243 106.664112,74.8816199 C106.650717,74.8923364 106.642679,74.9057321 106.626604,74.9218069 C106.613209,74.945919 106.57838,74.967352 106.546231,74.9914642 C106.532835,75.0102181 106.514081,75.0182555 106.479252,75.0343302 L106.441745,75.0557632 L106.433707,75.0611215 L106.347975,75.0959502 C106.30243,75.1120249 106.232773,75.1227414 106.139003,75.1227414 L106.133645,75.1227414 C106.072025,75.1200623 106.002368,75.1039875 105.93271,75.0771963 C105.913956,75.0664798 105.892523,75.0557632 105.873769,75.0423676 C105.855016,75.0343302 105.838941,75.0262928 105.838941,75.0262928 C105.820187,75.0048598 105.798754,74.988785 105.777321,74.9753894 C105.769283,74.9700312 105.758567,74.967352 105.755888,74.9619938 C105.745171,74.9432399 105.731776,74.9298442 105.721059,74.9218069 C105.707664,74.9110903 105.699626,74.903053 105.680872,74.8655452 L105.629969,74.7824922 L105.624611,74.7637383 L105.621931,74.7557009 C105.605857,74.7262305 105.592461,74.6887227 105.584424,74.6351402 C105.576386,74.6083489 105.568349,74.5761994 105.571028,74.546729 L105.568349,74.5145794 C105.568349,74.4931464 105.568349,74.4663551 105.573707,74.442243 C105.576386,74.4261682 105.579065,74.4074143 105.579065,74.3913396 C105.581745,74.3725857 105.581745,74.3538318 105.589782,74.337757 C105.59514,74.3216822 105.603178,74.3002492 105.608536,74.2814953 C105.613894,74.2654206 105.619252,74.2466667 105.619252,74.2386293 L105.664798,74.1475389 C105.680872,74.1207477 105.696947,74.0966355 105.710343,74.0725234 C105.726417,74.0537695 105.739813,74.0296573 105.737134,74.0242991 C105.836262,73.9466044 105.884486,73.8930218 105.884486,73.8930218 L105.916636,73.8581931 L105.790717,73.6090343 L105.742492,73.6170717 C105.742492,73.6170717 105.672835,73.625109 105.53352,73.6545794 L105.485296,73.6786916 C105.426355,73.7054829 105.35134,73.7403115 105.284361,73.7965732 C105.244174,73.8314019 105.201308,73.8635514 105.158442,73.9037383 C105.126293,73.9305296 105.102181,73.9653583 105.078069,74.0001869 C105.064673,74.0162617 105.051277,74.0350156 105.035202,74.0591277 C104.938754,74.2038006 104.885171,74.3350779 104.866417,74.463676 C104.839626,74.5494081 104.836947,74.6351402 104.836947,74.7128349 C104.831589,74.7932087 104.847664,74.8709034 104.861059,74.9485981 L104.869097,74.9834268 Z M111.18648,78.9538941 C111.221308,78.9887227 111.2481,79.0289097 111.280249,79.0717757 C111.312399,79.1066044 111.336511,79.1494704 111.365981,79.1950156 C111.419564,79.2780685 111.470467,79.3664798 111.507975,79.4602492 C111.550841,79.5513396 111.58567,79.6504673 111.609782,79.749595 C111.633894,79.8460436 111.652648,79.9451713 111.658006,80.0496573 C111.666044,80.1005607 111.663364,80.1514642 111.666044,80.2023676 C111.668723,80.2559502 111.660685,80.3095327 111.658006,80.357757 C111.644611,80.4595639 111.623178,80.5586916 111.593707,80.6578193 C111.580312,80.7087227 111.561558,80.7542679 111.540125,80.797134 L111.470467,80.9471651 L111.623178,81.0328972 L111.711589,80.8935826 C111.73838,80.84 111.76785,80.7837383 111.789283,80.7328349 C111.834829,80.6229907 111.866978,80.5104673 111.893769,80.3925857 C111.901807,80.336324 111.917882,80.2800623 111.92324,80.2184424 C111.928598,80.1621807 111.936636,80.1005607 111.933956,80.0416199 C111.939315,79.9237383 111.931277,79.8031776 111.915202,79.6879751 C111.899128,79.5700935 111.875016,79.454891 111.837508,79.3423676 C111.802679,79.2271651 111.759813,79.1119626 111.706231,79.0047975 C111.67676,78.9538941 111.652648,78.8976324 111.620498,78.8494081 C111.588349,78.7958255 111.561558,78.7449221 111.52405,78.6940187 C111.457072,78.594891 111.379377,78.5011215 111.299003,78.4127103 L111.288287,78.3966355 C110.567601,77.7161371 109.838879,77.0463551 109.126231,76.3578193 L108.603801,76.9766978 C109.407539,77.5607477 110.192523,78.1608723 110.988224,78.7502804 C111.057882,78.8145794 111.12486,78.8815576 111.18648,78.9538941 L111.18648,78.9538941 Z M72.5882866,78.8145794 L72.513271,78.2439252 L72.2882243,78.2305296 L72.0417445,79.7120872 L72.24,79.8299688 L74.9968224,77.9009969 L74.8709034,77.7027414 L72.5882866,78.8145794 Z M71.5434268,72.3069782 L68.904486,73.4643614 L68.6687227,72.3953894 L68.4409969,72.3953894 L68.3418692,74.4315265 L68.526729,74.5360125 L71.6586293,72.4971963 L71.5434268,72.3069782 Z M73.1964486,81.8875389 L73.1455452,81.3302804 L72.9204984,81.3115265 L72.6713396,82.790405 L72.8428037,82.9216822 L74.8548287,81.4615576 L74.7315888,81.2659813 L73.1964486,81.8875389 Z M74.4958255,74.6324611 L71.2808723,76.057757 L71.1737072,75.1468536 L70.9486604,75.1280997 L70.7316511,76.9874143 L70.9138318,77.1186916 L74.6244237,74.841433 L74.4958255,74.6324611 Z M110.682804,108.619875 C110.307726,108.673458 109.929969,108.732399 109.560249,108.78866 C109.177134,108.844922 108.802056,108.914579 108.472523,108.976199 C108.263551,109.011028 108.059938,109.053894 107.864361,109.09676 C107.727726,109.120872 107.593769,109.147664 107.462492,109.171776 L107.055265,109.25215 C106.881121,109.284299 106.717695,109.321807 106.559626,109.348598 C106.197944,109.420935 105.876449,109.490592 105.605857,109.552212 C105.455826,109.579003 105.324548,109.608474 105.206667,109.635265 L104.638692,109.766542 L104.689595,110.05053 L105.265607,109.986231 C105.386168,109.970156 105.525483,109.954081 105.683551,109.932648 C105.954143,109.903178 106.278318,109.86567 106.637321,109.812087 C106.918629,109.774579 107.22405,109.729034 107.548224,109.683489 L107.794704,109.65134 C108.043863,109.613832 108.303738,109.579003 108.566293,109.541495 C109.000312,109.46648 109.439688,109.410218 109.903178,109.34324 C110.192523,109.305732 110.484548,109.262866 110.776573,109.225358 C111.071277,109.177134 111.365981,109.134268 111.655327,109.091402 L111.896449,109.053894 L112.981495,108.887788 C113.455701,108.815452 113.903115,108.745794 114.321059,108.673458 C114.524673,108.641308 114.720249,108.609159 114.905109,108.579688 C115.229283,108.531464 115.518629,108.477882 115.770467,108.435016 C115.958006,108.400187 116.124112,108.370717 116.266106,108.346604 L116.83676,108.244798 L116.801931,107.955452 L116.74567,107.96081 C116.74567,107.96081 116.558131,107.966168 116.22324,107.99296 L116.057134,108.000997 C115.73028,108.02243 115.323053,108.0519 114.843489,108.108162 C114.637196,108.126916 114.417508,108.148349 114.187103,108.172461 C113.777196,108.212648 113.351215,108.255514 112.901121,108.311776 L111.810717,108.456449 C111.599065,108.488598 110.682804,108.619875 110.682804,108.619875 L110.682804,108.619875 Z M63.0371963,95.9877882 L63.0023676,96.1619315 L63.7016199,96.4646729 L63.3319003,97.1290966 L63.4658567,97.2442991 L64.877757,96.151215 L64.8214953,95.9904673 L63.0371963,95.9877882 Z M66.4075389,124.630343 L63.8838006,123.515826 L66.3325234,122.229844 L66.2655452,122.063738 L62.571028,123.089844 C62.4209969,123.13271 62.2923988,123.245234 62.2441745,123.403302 C62.1611215,123.65514 62.3004361,123.925732 62.5522741,124.006106 L62.5951402,124.019502 L66.1932087,125.176885 C66.7960125,125.361745 67.3934579,125.573396 67.9935826,125.777009 L69.7939564,126.395888 L69.8582555,126.227103 L68.1382555,125.423364 C67.562243,125.155452 66.9915888,124.88486 66.4075389,124.630343 L66.4075389,124.630343 Z M68.0525234,95.9877882 L68.0203738,96.1619315 L68.7196262,96.4646729 L68.3499065,97.1290966 L68.4838629,97.2442991 L69.8957632,96.151215 L69.8395016,95.9904673 L68.0525234,95.9877882 L68.0525234,95.9877882 Z" id="Fill-10" fill="#ec1a2e" mask="url(#mask-2)"></path>
    </g>
</svg>